<svg width="30" height="26" viewBox="0 0 30 26" fill="none" xmlns="http://www.w3.org/2000/svg">
<path d="M20.5312 0.708496C16.9429 0.708496 14.025 3.62646 14.025 7.21475C14.025 7.43037 14.0789 7.64131 14.1 7.85225C9.66325 7.42803 5.73981 5.29053 3.07497 2.021C2.95075 1.86396 2.75856 1.77959 2.557 1.79365C2.35778 1.80771 2.17966 1.92256 2.08122 2.096C1.52106 3.05928 1.19997 4.16787 1.19997 5.3585C1.19997 6.7999 1.71559 8.11943 2.51247 9.20225C2.35778 9.13428 2.18903 9.09678 2.04372 9.01475C1.85856 8.91631 1.63591 8.921 1.45544 9.02881C1.27497 9.13662 1.16481 9.33115 1.16247 9.53975V9.61475C1.16247 11.8249 2.30622 13.7444 3.99372 14.921C3.97497 14.9187 3.95622 14.9257 3.93747 14.921C3.73122 14.8858 3.52262 14.9585 3.38434 15.1155C3.24606 15.2726 3.20153 15.4905 3.26247 15.6897C3.93278 17.7733 5.64372 19.3647 7.76247 19.946C6.07497 20.9491 4.11794 21.5397 2.00622 21.5397C1.54919 21.5397 1.11091 21.5163 0.674968 21.4647C0.393718 21.4272 0.124186 21.5913 0.0304366 21.8585C-0.0656572 22.1257 0.0398116 22.4233 0.281218 22.571C2.98825 24.3077 6.20153 25.3272 9.65622 25.3272C15.2554 25.3272 19.6476 22.9882 22.5937 19.646C25.5398 16.3038 27.075 11.9632 27.075 7.9085C27.075 7.7374 27.0609 7.571 27.0562 7.40225C28.1554 6.56084 29.1375 5.57412 29.9062 4.421C30.0586 4.19834 30.0422 3.90068 29.8664 3.69443C29.6929 3.48818 29.4 3.4249 29.1562 3.53975C28.8468 3.67803 28.4859 3.69209 28.1625 3.80225C28.589 3.23271 28.9547 2.61865 29.175 1.92725C29.25 1.69053 29.1679 1.43037 28.9734 1.27568C28.7789 1.12334 28.507 1.10459 28.2937 1.2335C27.2695 1.84053 26.1351 2.26709 24.9375 2.52725C23.775 1.43975 22.2445 0.708496 20.5312 0.708496ZM20.5312 1.9085C22.0617 1.9085 23.4445 2.5624 24.4125 3.596C24.5578 3.746 24.7711 3.80928 24.975 3.76475C25.7578 3.61006 26.5008 3.38271 27.225 3.08975C26.8078 3.65225 26.2922 4.13271 25.6875 4.496C25.4133 4.62959 25.2843 4.946 25.3851 5.23428C25.4836 5.52021 25.7836 5.68662 26.0812 5.621C26.6812 5.54834 27.2156 5.30459 27.7875 5.15225C27.2742 5.70771 26.7117 6.20928 26.1 6.65225C25.9336 6.77412 25.8422 6.971 25.8562 7.17725C25.8656 7.421 25.875 7.6624 25.875 7.9085C25.875 11.6585 24.4359 15.7296 21.6937 18.8397C18.9515 21.9499 14.925 24.1272 9.65622 24.1272C7.26325 24.1272 5.00387 23.5976 2.96247 22.6647C5.49372 22.4702 7.82809 21.5749 9.71247 20.096C9.90934 19.939 9.98669 19.6765 9.907 19.4374C9.82731 19.1983 9.607 19.0343 9.35622 19.0272C7.37809 18.9921 5.72106 17.8413 4.83747 16.2147C4.87028 16.2147 4.89841 16.2147 4.93122 16.2147C5.52419 16.2147 6.11012 16.1397 6.65622 15.9897C6.91872 15.9124 7.09919 15.6687 7.08981 15.3944C7.08044 15.1202 6.88591 14.8858 6.61872 14.8272C4.48356 14.396 2.88278 12.6569 2.51247 10.496C3.11716 10.7046 3.73591 10.8687 4.40622 10.8897C4.68044 10.9062 4.92887 10.7351 5.01325 10.4749C5.09762 10.2147 4.9945 9.92881 4.76247 9.7835C3.33747 8.82959 2.39997 7.20537 2.39997 5.3585C2.39997 4.67412 2.57809 4.046 2.81247 3.446C5.81247 6.73896 10.0125 8.92568 14.7562 9.16475C14.9437 9.17412 15.1265 9.09678 15.2484 8.95381C15.3703 8.8085 15.4172 8.61631 15.375 8.4335C15.2836 8.04443 15.225 7.63193 15.225 7.21475C15.225 4.27568 17.5922 1.9085 20.5312 1.9085Z" fill="white"/>
</svg>
