<svg width="30" height="23" viewBox="0 0 30 23" fill="none" xmlns="http://www.w3.org/2000/svg">
<path d="M14.5936 0.547241C10.1045 0.547241 5.88903 0.887241 3.6445 1.36271C2.14903 1.70271 0.855439 2.72271 0.584502 4.28724C0.313564 5.91818 0.0399704 8.36724 0.0399704 11.4272C0.0399704 14.4872 0.310908 16.8672 0.650908 18.5672C0.924501 20.0627 2.21544 21.1518 3.71091 21.4918C6.09356 21.9672 10.1709 22.3072 14.66 22.3072C19.149 22.3072 23.2264 21.9672 25.6064 21.4918C27.1045 21.1518 28.3954 20.1318 28.6664 18.5672C28.94 16.8672 29.28 14.4208 29.3464 11.3608C29.3464 8.30084 29.0064 5.85177 28.6664 4.15177C28.3954 2.6563 27.1045 1.56724 25.6064 1.22724C23.2264 0.887241 19.08 0.547241 14.5936 0.547241ZM14.5936 1.90724C19.489 1.90724 23.4309 2.31365 25.3354 2.65365C26.3554 2.92724 27.1709 3.60724 27.3064 4.49177C27.7154 6.66724 27.9864 8.98083 27.9864 11.3608C27.92 14.2827 27.58 16.6627 27.3064 18.3627C27.1045 19.6536 25.7445 20.0627 25.3354 20.2008C22.8864 20.6763 18.8064 21.0136 14.7264 21.0136C10.6464 21.0136 6.49997 20.7427 4.11997 20.2008C3.09997 19.9272 2.2845 19.2472 2.14903 18.3627C1.6045 16.4582 1.39997 13.9427 1.39997 11.4272C1.39997 8.29818 1.67356 5.98724 1.9445 4.56083C2.14903 3.26724 3.57544 2.85818 3.91544 2.72271C6.15997 2.24724 10.309 1.90724 14.5936 1.90724ZM10.92 5.98724L10.92 16.8672L20.44 11.4272L10.92 5.98724ZM12.28 8.30084L17.72 11.4272L12.28 14.5536L12.28 8.30084Z" fill="white"/>
</svg>
