<svg width="28" height="27" viewBox="0 0 28 27" fill="none" xmlns="http://www.w3.org/2000/svg">
<path d="M8.59997 0.227295C4.29946 0.227295 0.79997 3.72678 0.79997 8.02729L0.79997 18.8273C0.79997 23.1278 4.29946 26.6273 8.59997 26.6273L19.4 26.6273C23.7005 26.6273 27.2 23.1278 27.2 18.8273L27.2 8.02729C27.2 3.72678 23.7005 0.227295 19.4 0.227295L8.59997 0.227295ZM8.59997 1.42729L19.4 1.42729C23.0519 1.42729 26 4.3754 26 8.02729L26 18.8273C26 22.4792 23.0519 25.4273 19.4 25.4273L8.59997 25.4273C4.94808 25.4273 1.99997 22.4792 1.99997 18.8273L1.99997 8.02729C1.99997 4.3754 4.94808 1.42729 8.59997 1.42729ZM21.2 5.02729C20.8817 5.02729 20.5765 5.15372 20.3514 5.37877C20.1264 5.60381 20 5.90903 20 6.22729C20 6.54555 20.1264 6.85078 20.3514 7.07582C20.5765 7.30087 20.8817 7.42729 21.2 7.42729C21.5182 7.42729 21.8235 7.30087 22.0485 7.07582C22.2735 6.85078 22.4 6.54555 22.4 6.22729C22.4 5.90903 22.2735 5.60381 22.0485 5.37877C21.8235 5.15372 21.5182 5.02729 21.2 5.02729ZM14 6.82729C10.362 6.82729 7.39997 9.78932 7.39997 13.4273C7.39997 17.0653 10.362 20.0273 14 20.0273C17.6379 20.0273 20.6 17.0653 20.6 13.4273C20.6 9.78932 17.6379 6.82729 14 6.82729ZM14 8.02729C16.9894 8.02729 19.4 10.4378 19.4 13.4273C19.4 16.4167 16.9894 18.8273 14 18.8273C11.0105 18.8273 8.59997 16.4167 8.59997 13.4273C8.59997 10.4378 11.0105 8.02729 14 8.02729Z" fill="white"/>
</svg>
