<svg width="22" height="22" viewBox="0 0 22 22" fill="none" xmlns="http://www.w3.org/2000/svg">
<path fill-rule="evenodd" clip-rule="evenodd" d="M11.8642 18.2709L14.955 15.1801C15.2977 14.8375 15.8367 14.7898 16.2342 15.067L20.6544 18.1499C21.165 18.506 21.2296 19.237 20.7895 19.6772L20.0086 20.4581C19.2983 21.1683 18.2814 21.476 17.3221 21.1783C14.9786 20.4513 10.4062 18.6543 6.63867 14.8868C2.87118 11.1194 1.07425 6.54696 0.347182 4.20344C0.0495479 3.24409 0.357178 2.22717 1.06744 1.51691L1.84831 0.736041C2.28848 0.295869 3.01953 0.360512 3.37563 0.871093L6.45851 5.29133C6.73572 5.6888 6.68806 6.22784 6.3454 6.57049L3.25461 9.66128" fill="white"/>
</svg>
